<?xml version="1.0" encoding="UTF-8"?><svg id="Layer_2" xmlns="http://www.w3.org/2000/svg" viewBox="0 0 940.89 547.98"><g id="Layer_1-2"><path d="m50.7,26.5L0,128h208V0h-114.3c-18.2,0-34.8,10.3-43,26.5Zm189.3,101.5h208l-50.7-101.5c-8.2-16.2-24.8-26.5-43-26.5h-114.3v128Zm208,32H0v224c0,35.3,28.7,64,64,64h320c35.3,0,64-28.7,64-64v-224Z"/><g><path d="m614.52,364.47l-19.3,19.3v61.23h-53.62V160h53.62v157.9l10.39-13.36,51.4-60.3h64.38l-72.55,83.68,78.86,117.08h-61.6l-51.58-80.53Z"/><path d="m736.79,343.13c0-30.8,7.33-55.6,21.99-74.4,14.66-18.8,34.42-28.2,59.28-28.2,22.02,0,39.15,7.55,51.4,22.64l2.23-18.93h48.61v194.08c0,17.56-3.99,32.84-11.97,45.83s-19.2,22.88-33.68,29.69c-14.47,6.8-31.42,10.21-50.84,10.21-14.72,0-29.07-2.94-43.05-8.81-13.98-5.88-24.56-13.45-31.73-22.73l23.75-32.66c13.36,14.97,29.56,22.45,48.61,22.45,14.22,0,25.29-3.8,33.21-11.41,7.92-7.61,11.88-18.4,11.88-32.38v-10.76c-12.37,13.98-28.64,20.97-48.8,20.97-24.12,0-43.64-9.43-58.54-28.3-14.91-18.86-22.36-43.88-22.36-75.05v-2.23Zm53.62,3.99c0,18.21,3.65,32.49,10.95,42.83,7.3,10.34,17.32,15.52,30.06,15.52,16.33,0,28.02-6.13,35.07-18.4v-84.55c-7.18-12.26-18.74-18.4-34.7-18.4-12.87,0-22.98,5.27-30.34,15.8-7.36,10.53-11.04,26.26-11.04,47.2Z"/></g></g></svg>